<?xml version="1.0" encoding="UTF-8" standalone="no"?>
<!-- Created with Inkscape (http://www.inkscape.org/) -->

<svg
   width="210mm"
   height="210mm"
   viewBox="0 0 210 210"
   version="1.1"
   id="svg1"
   xml:space="preserve"
   xmlns="http://www.w3.org/2000/svg"
   xmlns:svg="http://www.w3.org/2000/svg"><defs
     id="defs1"><linearGradient
       id="swatch3"><stop
         style="stop-color:#000000;stop-opacity:1;"
         offset="0"
         id="stop3" /></linearGradient></defs><g
     id="layer1"><path
       style="display:inline;fill:#4a1810;fill-opacity:1;fill-rule:nonzero;stroke-width:2.09376"
       d="m 106.77374,78.561091 c -0.0325,-6.529165 -1.06144,-11.24744 -4.3213,-19.814979 -2.35326,-6.184868 -4.04257,-11.245221 -3.754006,-11.245221 1.010403,0 10.714726,22.185885 12.716986,29.07331 2.15993,7.429941 1.49554,14.622384 -1.35074,14.622384 -0.92849,0 -2.03919,-0.914782 -2.46823,-2.032867 -0.42905,-1.118065 -0.79927,-5.889251 -0.82271,-10.602627 z m 57.46604,68.757259 c 5.97874,0.72174 6.83355,1.08678 4.26464,1.82119 -4.57573,1.30814 -10.62825,1.32273 -12.66759,0.0306 v -2e-5 c -3.11088,-1.97109 0.61402,-2.79201 8.40295,-1.85175 z m -123.610867,0.36589 c -2.366361,-2.66844 -2.163519,-2.63272 2.571674,0.45288 2.827365,1.84237 7.598551,3.73818 10.602628,4.2129 3.004076,0.47471 5.461977,1.36752 5.461977,1.98403 0,1.92924 -6.865903,1.11446 -11.567869,-1.37278 -2.474671,-1.30906 -5.655461,-3.68373 -7.06841,-5.27703 z m 94.864827,39.45755 c -4.10967,-4.40793 -9.1351,-11.09453 -11.16766,-14.85906 -3.14458,-5.82396 -3.58315,-7.79379 -2.94169,-13.20995 1.27898,-10.79886 8.56603,-19.03983 16.83592,-19.03983 4.6007,0 5.24572,2.62414 2.09161,8.50906 -5.10219,9.51957 -2.72162,23.49102 5.27323,30.94849 7.88082,7.35112 22.66756,8.99517 33.89216,3.7683 8.13816,-3.78964 16.3512,-12.99916 20.04239,-22.47413 3.41407,-8.76369 4.57692,-23.89713 2.42644,-31.57787 l -1.54685,-5.5248 -8.95416,4.59408 c -9.75431,5.00461 -8.88573,4.92848 -44.14598,3.86893 -13.64693,-0.41007 -19.30184,1.82647 -26.81698,10.60621 -3.83956,4.48569 -4.74384,5.00952 -5.45381,3.1594 -1.01723,-2.65089 0.10276,-23.01313 1.37961,-25.07887 0.59267,-0.95896 2.34157,-0.17734 5.18012,2.31483 5.58727,4.90572 12.33205,7.04447 19.91702,6.31565 9.37321,-0.90065 14.66527,-4.90456 19.52212,-14.77021 3.73812,-7.59323 4.16933,-9.62518 4.14149,-19.519667 -0.0354,-12.611793 -2.77268,-22.436611 -7.97288,-28.616704 -3.79627,-4.511622 -12.03739,-8.7029 -17.19521,-8.745194 -3.07664,-0.02534 -3.67042,-0.810429 -5.58002,-7.37925 C 128.6587,30.610908 115.45304,15.388517 95.319823,5.3590349 86.1894,0.81066743 85.159,0.59226783 72.829382,0.59226783 c -15.634264,0 -22.140083,2.61591547 -32.364934,13.01350117 -13.782578,14.015467 -14.317973,32.415528 -1.276395,43.866189 5.534736,4.859562 11.080025,5.451886 14.936469,1.59544 2.567299,-2.567298 3.683438,-8.550642 1.322897,-7.091756 -1.769348,1.093526 -8.705141,-2.744242 -10.280984,-5.688731 -1.741669,-3.254343 -1.682332,-9.443483 0.128556,-13.418119 1.75109,-3.843212 7.611175,-6.51499 11.918384,-5.433963 4.453761,1.117835 10.433818,6.484609 12.332036,11.067335 2.055251,4.961801 -0.05653,10.892507 -9.674412,27.168517 -8.279083,14.010569 -10.258141,21.207557 -10.199769,37.092409 0.03685,10.01544 0.549905,13.16864 2.855778,17.54957 5.355133,10.1743 14.789079,14.53701 26.161055,12.09815 7.523509,-1.6135 17.886527,-6.64854 24.653317,-11.97821 2.68326,-2.1134 5.21007,-3.51108 5.61518,-3.10599 0.40507,0.40508 -0.19995,4.88318 -1.34445,9.95133 -2.36713,10.48196 -2.6074,19.83772 -0.71978,28.02534 0.71381,3.09735 1.04377,5.88612 0.73266,6.19725 -0.31112,0.31111 -4.16707,-2.33641 -8.568785,-5.88335 C 90.528266,148.74529 77.342722,141.36885 68.903885,138.74895 59.992416,135.98233 48.864529,129.4291 42.805266,123.37946 27.432376,108.03095 20.304649,87.667164 29.121093,84.283972 c 5.170527,-1.984126 10.444863,4.6353 7.620827,9.564332 -3.182591,5.554896 -3.511646,6.441356 -2.694391,7.258606 1.57442,1.57439 7.651104,-2.90979 9.305568,-6.866906 1.61016,-3.851189 1.280666,-6.942366 -1.459619,-13.693573 -1.35154,-3.329782 -7.844104,-6.281892 -14.021079,-6.375273 -15.71344,-0.237557 -20.6476643,16.54711 -12.039633,40.954952 l 4.13349,11.72041 -2.519708,5.59213 c -1.847487,4.10023 -2.507794,8.34497 -2.47511,15.91069 0.05653,13.0942 3.293141,22.50487 10.236742,29.76477 4.236943,4.42992 6.270355,5.53015 11.566507,6.25836 4.061654,0.55847 8.553616,2.3757 12.209102,4.93923 4.499981,3.15577 7.124083,4.0557 11.825872,4.0557 5.309007,0 6.677674,-0.6201 11.273297,-5.10763 6.60186,-6.44652 8.333709,-12.33177 6.518465,-22.15127 -2.546969,-13.77787 -1.802575,-14.43439 8.499828,-7.49634 15.274939,10.28675 31.618109,28.74332 35.702279,40.31917 3.02102,8.56246 4.45487,10.50066 7.76821,10.50066 2.00387,0 4.20597,-1.47888 6.21938,-4.17679 h 4e-5 c 6.95078,-9.31391 6.95446,-9.26256 -1.29742,-18.11341 z"
       id="path1" /></g></svg>
